<?xml version="1.0" standalone="no"?>
<!DOCTYPE svg PUBLIC "-//W3C//DTD SVG 20010904//EN"
 "http://www.w3.org/TR/2001/REC-SVG-20010904/DTD/svg10.dtd">
<svg version="1.0" xmlns="http://www.w3.org/2000/svg"
 width="1024.000000pt" height="1024.000000pt" viewBox="0 0 1024.000000 1024.000000"
 preserveAspectRatio="xMidYMid meet">

<g transform="translate(0.000000,1024.000000) scale(0.100000,-0.100000)"
fill="#000000" stroke="none">
<path d="M0 5120 l0 -5120 5120 0 5120 0 0 5120 0 5120 -5120 0 -5120 0 0
-5120z m5191 2602 c-105 -89 -179 -163 -247 -249 -41 -50 -78 -94 -84 -98 -5
-3 -40 -14 -77 -24 -337 -90 -519 -164 -736 -302 -151 -96 -214 -146 -351
-279 -296 -287 -506 -632 -631 -1036 -35 -114 -39 -121 -88 -164 -29 -25 -114
-107 -191 -182 -77 -76 -143 -138 -148 -138 -14 0 -9 79 17 255 33 221 58 341
106 497 48 157 90 253 185 425 66 119 112 190 229 358 53 75 305 324 434 429
264 214 602 378 967 470 228 57 341 72 559 74 l100 1 -44 -37z m259 28 c197
-12 336 -36 525 -89 193 -54 270 -83 415 -156 317 -158 538 -321 790 -581 338
-350 555 -799 645 -1339 14 -82 26 -193 28 -247 3 -95 2 -96 -18 -82 -11 8
-78 76 -148 151 -71 76 -148 151 -170 166 -69 46 -73 52 -86 118 -17 83 -87
277 -150 411 -97 208 -267 447 -445 624 -302 301 -633 491 -1071 615 -155 44
-182 58 -221 111 -13 17 -80 91 -149 164 -69 73 -125 135 -125 138 0 7 -17 8
180 -4z m-1 -545 c34 -38 86 -88 115 -110 66 -49 449 -408 766 -719 259 -254
671 -650 738 -710 23 -21 42 -41 42 -45 0 -4 -49 -51 -110 -106 -60 -55 -124
-119 -141 -141 -17 -23 -44 -51 -60 -63 l-28 -21 -268 268 c-288 288 -907 892
-1091 1065 -62 58 -132 115 -156 126 l-42 21 -180 -178 c-98 -98 -354 -349
-569 -558 -214 -210 -460 -451 -545 -535 -142 -140 -166 -159 -265 -214 -102
-55 -121 -71 -255 -208 l-145 -148 -35 46 c-29 39 -143 144 -228 212 l-24 18
124 120 c68 65 222 218 343 339 121 121 245 243 275 270 30 27 175 166 321
310 652 640 817 791 819 749 1 -5 12 -21 27 -38 l26 -30 -22 38 c-11 21 -21
44 -21 50 1 7 26 32 57 57 30 25 81 76 111 115 31 38 88 102 127 143 38 40 73
79 78 87 8 15 84 -60 216 -210z m1954 -1884 l115 -103 -90 -77 c-50 -42 -99
-82 -110 -90 -10 -8 -47 -48 -82 -90 -34 -42 -167 -179 -295 -306 -128 -126
-416 -412 -640 -634 -223 -223 -485 -479 -581 -570 -96 -90 -202 -192 -235
-225 -94 -96 -245 -236 -253 -235 -4 0 -65 64 -137 141 -71 77 -139 144 -150
148 -17 7 -6 21 90 111 61 57 139 135 175 173 36 38 279 281 540 540 260 259
585 581 720 716 207 208 263 257 362 324 71 47 136 100 164 132 26 31 75 72
115 96 39 22 84 56 102 75 l31 33 22 -27 c12 -16 74 -75 137 -132z m-4672
-248 c49 -69 172 -188 257 -249 23 -16 46 -38 51 -49 6 -11 38 -100 70 -197
128 -379 302 -662 570 -928 228 -226 495 -397 801 -513 80 -30 192 -65 250
-78 58 -13 113 -30 124 -38 10 -9 34 -41 54 -71 57 -91 131 -169 207 -220 39
-26 84 -65 100 -85 l28 -38 -149 6 c-304 12 -743 138 -1044 300 -104 56 -296
178 -388 247 -223 165 -479 442 -620 670 -186 298 -269 493 -336 783 -47 204
-56 268 -61 424 -4 130 -4 132 16 120 10 -6 42 -44 70 -84z m1325 -293 c193
-195 390 -393 439 -440 196 -186 454 -439 518 -507 l68 -72 -88 -88 c-49 -48
-114 -121 -146 -161 -32 -40 -65 -76 -73 -79 -10 -3 -28 10 -51 38 -40 48
-775 783 -1131 1130 l-221 217 57 40 c68 48 247 229 257 261 3 12 10 21 14 19
5 -2 165 -163 357 -358z m3752 215 c24 -29 25 -34 19 -130 -18 -282 -149 -675
-316 -945 -161 -260 -350 -478 -581 -673 -118 -99 -372 -268 -511 -339 -92
-47 -289 -135 -344 -153 -237 -79 -494 -133 -674 -142 -115 -6 -124 -5 -118
11 14 35 100 147 143 185 24 21 63 62 85 90 22 28 46 48 51 44 7 -3 8 -1 4 5
-3 6 9 26 28 45 28 28 51 38 140 60 243 61 561 203 738 330 298 213 455 375
658 676 118 176 231 433 295 674 18 68 20 70 114 150 52 45 122 108 156 139
l60 57 14 -27 c8 -15 25 -40 39 -57z"/>
</g>
</svg>
